<svg height="24" viewBox="0 0 24 24" width="24" xmlns="http://www.w3.org/2000/svg"><path d="m13 11v-3.5l2.2-2.21c.8-.79.95-2.05.39-3.03-.45-.79-1.27-1.26-2.14-1.26-.21 0-.45.03-.64.09-1.08.29-1.81 1.29-1.81 2.41v3.24l-3.14 3.17c-1.66 1.69-2.16 4.22-1.25 6.43.77 1.9 2.45 3.21 4.39 3.55v.61c0 .26-.23.5-.5.5h-1.5v2h1.5c1.35 0 2.5-1.11 2.5-2.5v-.5c2.03 0 4.16-1.92 4.16-4.75 0-2.3-1.92-4.25-4.16-4.25m0-7.5c0-.23.11-.41.32-.47.22-.06.45.03.56.23.12.2.08.45-.08.61l-.8.86zm-2 8c-.97.64-1.7 1.74-1.96 2.76l1.96.52v3.05c-1.13-.3-2.1-1.12-2.57-2.26-.59-1.46-.27-3.12.83-4.24l1.74-1.83zm2 6.5v-5.06c1.17 0 2.18 1.1 2.18 2.31 0 1.75-1.27 2.75-2.18 2.75z"/></svg>